<svg xmlns="http://www.w3.org/2000/svg" width="259" height="40" fill="none"><path fill="#205629" d="M193.327 23.694c-.224-.246-.515-.369-.872-.369-.358 0-.649.123-.872.369a1.213 1.213 0 0 0 0 1.676c.223.246.514.369.872.369.357 0 .648-.123.872-.369.223-.246.334-.525.334-.838 0-.313-.111-.592-.334-.838Zm-34.462-8.099c-.919-.912-2.027-1.37-3.327-1.37-.25 0-.491.021-.727.056h-.006c-.987.143-1.853.58-2.593 1.314-.912.925-1.372 2.034-1.372 3.327v6.14a.65.65 0 0 0 .204.48.647.647 0 0 0 .479.197h.033a.657.657 0 0 0 .478-.197.675.675 0 0 0 .204-.48v-6.14c0-.906.322-1.687.971-2.336.076-.076.161-.133.242-.201.093-.078.182-.164.281-.23.046-.031.097-.05.145-.079.134-.08.268-.161.411-.22.053-.022.111-.031.165-.05.143-.05.285-.101.436-.13.209-.04.425-.06.649-.06.912 0 1.686.327 2.336.97.643.65.971 1.43.971 2.336v6.14a.672.672 0 0 0 .689.677h.026c.044 0 .08-.016.121-.023a.648.648 0 0 0 .365-.174.634.634 0 0 0 .19-.48v-6.139c0-1.293-.459-2.402-1.371-3.327Zm28.04-1.175a.65.65 0 0 0-.479-.196h-.033a.66.66 0 0 0-.479.197.678.678 0 0 0-.203.479v6.141a3.19 3.19 0 0 1-.971 2.336c-.077.076-.161.133-.242.2-.093.079-.183.165-.281.231-.046.03-.098.05-.145.08-.134.08-.268.16-.411.22-.053.021-.111.03-.166.049-.142.05-.285.101-.435.13-.209.04-.426.061-.65.061-.912 0-1.686-.328-2.335-.97-.644-.65-.971-1.431-.971-2.337V14.9a.672.672 0 0 0-.689-.676h-.027c-.043 0-.08.016-.12.023a.65.65 0 0 0-.365.174.634.634 0 0 0-.19.479v6.141c0 1.293.459 2.401 1.371 3.326.918.912 2.027 1.372 3.326 1.372.251 0 .492-.023.728-.056l.005-.001c.987-.144 1.854-.58 2.594-1.315.912-.925 1.371-2.033 1.371-3.326V14.9a.65.65 0 0 0-.203-.48Z"/><path fill="#A5C658" d="M232.147 12.224a.787.787 0 0 0 .578-.237.802.802 0 0 0 .247-.588.79.79 0 0 0-.247-.577.787.787 0 0 0-.578-.237.797.797 0 0 0-.588.237.785.785 0 0 0-.237.577c0 .234.079.43.237.588a.797.797 0 0 0 .588.237Zm.01 2.578h-.02a.617.617 0 0 0-.454.185.616.616 0 0 0-.185.454v9.372c0 .172.061.32.185.444a.618.618 0 0 0 .454.185h.02c.172 0 .32-.062.444-.186a.603.603 0 0 0 .185-.443v-9.372a.616.616 0 0 0-.185-.454.606.606 0 0 0-.444-.185Zm-19.472-2.287a.787.787 0 0 0 .578-.237.8.8 0 0 0 .247-.588.79.79 0 0 0-.247-.577.787.787 0 0 0-.578-.237.795.795 0 0 0-.587.237.783.783 0 0 0-.238.577c0 .234.079.43.238.588a.794.794 0 0 0 .587.237Zm.011 2.578h-.021a.618.618 0 0 0-.454.186.618.618 0 0 0-.185.453v9.373c0 .171.062.32.185.443a.62.62 0 0 0 .454.186h.021a.608.608 0 0 0 .443-.186.604.604 0 0 0 .185-.443v-9.373a.614.614 0 0 0-.185-.453.606.606 0 0 0-.443-.186Zm45.382-4.281a.617.617 0 0 0-.454.186.62.62 0 0 0-.185.453v13.362c0 .172.062.32.185.444a.618.618 0 0 0 .454.185h.021a.604.604 0 0 0 .443-.186.603.603 0 0 0 .185-.443V11.451a.616.616 0 0 0-.185-.453.604.604 0 0 0-.443-.186h-.021Zm-16.981 3.86a.603.603 0 0 0-.443-.186h-1.659v-3.035a.616.616 0 0 0-.185-.453.606.606 0 0 0-.444-.186h-.021a.617.617 0 0 0-.453.186.616.616 0 0 0-.185.453v3.035h-1.649a.617.617 0 0 0-.454.186.607.607 0 0 0-.185.443v.02c0 .18.062.33.185.454a.617.617 0 0 0 .454.186h1.649v9.038c0 .172.061.32.185.444a.617.617 0 0 0 .453.185h.021c.172 0 .32-.062.444-.186a.603.603 0 0 0 .185-.443v-9.038h1.659c.172 0 .32-.062.443-.186a.616.616 0 0 0 .186-.453v-.02a.604.604 0 0 0-.186-.444Z"/><path fill="#205629" d="M138.097 21.143c-.074-.5-.11-.858-.11-1.072 0-1.193.419-2.213 1.259-3.06.847-.847 1.867-1.27 3.061-1.27 1.34 0 2.533.625 3.579 1.877l-7.789 3.525Zm9.513.166a.663.663 0 0 0-.563-.288c-.332 0-.553.155-.664.464a4.201 4.201 0 0 1-1.535 2.077 4.215 4.215 0 0 1-2.541.83c-1.407 0-2.626-.664-3.657-1.99a974.31 974.31 0 0 0 4.441-2c1.68-.758 3.034-1.37 4.066-1.834a.678.678 0 0 0 .353-.375.64.64 0 0 0-.022-.52 5.605 5.605 0 0 0-2.066-2.408 5.558 5.558 0 0 0-3.115-.928c-1.577 0-2.921.556-4.033 1.669-1.112 1.111-1.668 2.456-1.668 4.032s.556 2.92 1.668 4.032c1.112 1.113 2.456 1.669 4.033 1.669a5.613 5.613 0 0 0 3.336-1.072 5.528 5.528 0 0 0 2.044-2.74.642.642 0 0 0-.077-.618Zm24.376 1.673c-.829.83-1.833 1.244-3.012 1.244s-2.186-.415-3.023-1.244c-.829-.837-1.244-1.844-1.244-3.023 0-1.171.415-2.175 1.244-3.012.837-.837 1.844-1.255 3.023-1.255 1.186 0 2.19.418 3.012 1.255.837.837 1.255 1.84 1.255 3.012 0 1.179-.418 2.186-1.255 3.023Zm.971-7.006c-1.098-1.099-2.426-1.648-3.983-1.648s-2.884.55-3.983 1.648c-1.098 1.098-1.648 2.426-1.648 3.983s.55 2.884 1.648 3.983c1.099 1.099 2.426 1.648 3.983 1.648 1.419 0 2.841-.633 4.267-1.899v1.233a.64.64 0 0 0 .197.47c.13.13.287.196.469.196h.033a.64.64 0 0 0 .469-.197.64.64 0 0 0 .196-.469V19.96c0-1.557-.549-2.884-1.648-3.983Z"/><path fill="#A5C658" d="M251.731 22.982c-.829.83-1.833 1.244-3.011 1.244-1.179 0-2.187-.415-3.024-1.244-.829-.837-1.244-1.844-1.244-3.023 0-1.171.415-2.175 1.244-3.012.837-.837 1.845-1.255 3.024-1.255 1.185 0 2.189.418 3.011 1.255.837.837 1.255 1.84 1.255 3.012 0 1.179-.418 2.186-1.255 3.023Zm.972-7.006c-1.099-1.099-2.427-1.648-3.983-1.648-1.557 0-2.885.55-3.984 1.648-1.098 1.098-1.648 2.426-1.648 3.983s.55 2.884 1.648 3.983c1.099 1.099 2.427 1.648 3.984 1.648 1.418 0 2.84-.633 4.266-1.899v1.233a.64.64 0 0 0 .197.47.639.639 0 0 0 .469.196h.033a.639.639 0 0 0 .469-.197.64.64 0 0 0 .197-.469V19.96c0-1.557-.55-2.884-1.648-3.983Z"/><path fill="#205629" d="M94.879 22.982c-.83.83-1.834 1.244-3.012 1.244-1.179 0-2.186-.415-3.023-1.244-.83-.837-1.244-1.844-1.244-3.023 0-1.171.415-2.175 1.244-3.012.837-.837 1.844-1.255 3.023-1.255 1.186 0 2.19.418 3.012 1.255.836.837 1.255 1.84 1.255 3.012 0 1.179-.419 2.186-1.255 3.023Zm.971-7.006c-1.099-1.099-2.426-1.648-3.983-1.648s-2.885.55-3.983 1.648c-1.1 1.098-1.648 2.426-1.648 3.983s.549 2.884 1.648 3.983c1.098 1.099 2.426 1.648 3.983 1.648 1.419 0 2.841-.633 4.267-1.899v1.233a.64.64 0 0 0 .196.47.64.64 0 0 0 .47.196h.032a.64.64 0 0 0 .47-.197.64.64 0 0 0 .196-.469V19.96c0-1.557-.55-2.884-1.648-3.983ZM73.23 19.96c0-1.172.419-2.176 1.255-3.013.823-.837 1.827-1.255 3.013-1.255 1.178 0 2.186.418 3.022 1.255.83.837 1.245 1.84 1.245 3.012 0 1.179-.415 2.186-1.245 3.023-.836.83-1.844 1.244-3.022 1.244-1.18 0-2.183-.415-3.013-1.244-.836-.837-1.254-1.844-1.254-3.023Zm-1.364 0v8.5a.64.64 0 0 0 .197.47.639.639 0 0 0 .47.197h.032a.638.638 0 0 0 .47-.197.638.638 0 0 0 .196-.47v-4.769c1.426 1.266 2.848 1.9 4.267 1.9 1.557 0 2.884-.55 3.983-1.649 1.099-1.099 1.648-2.426 1.648-3.983s-.55-2.884-1.648-3.983c-1.099-1.099-2.426-1.648-3.983-1.648s-2.885.55-3.984 1.648c-1.098 1.098-1.648 2.426-1.648 3.983Z"/><path fill="#A5C658" d="M207.699 20.044c0 1.17-.418 2.175-1.255 3.012-.822.836-1.826 1.254-3.012 1.254-1.178 0-2.186-.418-3.023-1.254-.829-.837-1.244-1.841-1.244-3.012 0-1.18.415-2.187 1.244-3.024.837-.828 1.845-1.243 3.023-1.243 1.179 0 2.183.415 3.012 1.243.837.837 1.255 1.845 1.255 3.024Zm1.365 0v-8.502a.64.64 0 0 0-.197-.47.642.642 0 0 0-.469-.196h-.033a.639.639 0 0 0-.469.197.64.64 0 0 0-.197.469v4.77c-1.426-1.267-2.848-1.9-4.267-1.9-1.557 0-2.884.55-3.983 1.648-1.099 1.099-1.648 2.427-1.648 3.984s.549 2.884 1.648 3.983c1.099 1.098 2.426 1.648 3.983 1.648s2.885-.55 3.984-1.648c1.098-1.099 1.648-2.426 1.648-3.983Z"/><path fill="#205629" d="M130.638 23.22c-.868.888-1.926 1.334-3.134 1.334-2.752 0-4.509-2.224-4.509-4.638 0-2.413 1.842-4.488 4.509-4.488 2.689 0 4.468 2.329 4.468 4.657 0 1.165-.466 2.224-1.334 3.134Zm2.837-3.558c-.106-1.185-.444-2.265-1.461-3.472-1.08-1.27-2.815-1.969-4.551-1.969-3.452 0-5.95 2.52-5.95 5.759 0 3.345 2.562 5.801 6.076 5.801 1.44 0 2.668-.508 4.446-2.287-.296 3.366-1.884 5.103-4.531 5.103-1.714 0-2.815-.55-3.429-2.054-.08-.229-.16-.584-.298-.701a.753.753 0 0 0-.59-.18l-.04.003a.774.774 0 0 0-.543.295.774.774 0 0 0-.18.583h-.001l.001.002-.001.005h.003c.617 2.219 2.816 3.338 5.185 3.338 3.98 0 5.631-2.562 5.737-6.16.043-1.547.212-2.859.127-4.066Z"/><path fill="#A5C658" d="M225.373 23.22c-.868.888-1.926 1.334-3.133 1.334-2.752 0-4.51-2.224-4.51-4.638 0-2.413 1.842-4.488 4.51-4.488 2.689 0 4.467 2.329 4.467 4.657 0 1.165-.466 2.224-1.334 3.134Zm2.838-3.558c-.107-1.185-.445-2.265-1.462-3.472-1.079-1.27-2.815-1.969-4.552-1.969-3.45 0-5.949 2.52-5.949 5.759 0 3.345 2.562 5.801 6.076 5.801 1.44 0 2.668-.508 4.446-2.287-.296 3.366-1.884 5.103-4.53 5.103-1.715 0-2.816-.55-3.43-2.054-.079-.229-.16-.584-.297-.701a.757.757 0 0 0-.591-.18l-.04.003a.778.778 0 0 0-.543.295.774.774 0 0 0-.18.583h-.001l.001.002-.001.005h.003c.617 2.219 2.816 3.338 5.184 3.338 3.981 0 5.633-2.562 5.739-6.16.042-1.547.211-2.859.127-4.066Z"/><path fill="#205629" d="M105.834 19.493c-.508-.212-1.249-.36-1.884-.635-.677-.275-1.355-.762-1.355-1.695 0-.973.784-1.692 1.779-1.692 1.397 0 1.736.74 1.863 1.65h.003a.703.703 0 0 0 .21.483.707.707 0 0 0 .518.216h.036a.708.708 0 0 0 .518-.216.708.708 0 0 0 .21-.482h.008c0-.008-.003-.015-.004-.023 0-.005.003-.008.003-.013h-.005c-.221-1.8-1.173-2.928-3.276-2.928-1.82 0-3.345 1.354-3.345 3.09 0 1.8 1.101 2.394 2.393 2.859.338.149.677.233.974.36.994.38 1.905.931 1.905 2.16 0 1.122-.911 1.905-2.096 1.905-1.524 0-2.223-1.292-2.223-2.435h-.002a.718.718 0 0 0-.209-.51.676.676 0 0 0-.502-.217h-.035a.679.679 0 0 0-.503.217.717.717 0 0 0-.208.51h-.002a.012.012 0 0 1 .001.006l-.001.003h.001c.066 2.113 1.378 3.675 3.662 3.675 2.054 0 3.684-1.313 3.684-3.26 0-1.462-.72-2.456-2.118-3.028Zm10.455 0c-.508-.212-1.25-.36-1.885-.635-.677-.275-1.355-.762-1.355-1.695 0-.973.783-1.692 1.778-1.692 1.398 0 1.737.74 1.864 1.65h.002a.705.705 0 0 0 .211.483.707.707 0 0 0 .518.216h.036a.71.71 0 0 0 .518-.216.708.708 0 0 0 .21-.482h.008l-.004-.023c0-.005.003-.008.003-.013h-.006c-.22-1.8-1.172-2.928-3.274-2.928-1.822 0-3.346 1.354-3.346 3.09 0 1.8 1.101 2.394 2.392 2.859.34.149.678.233.974.36.996.38 1.906.931 1.906 2.16 0 1.122-.91 1.905-2.096 1.905-1.524 0-2.223-1.292-2.223-2.435h-.003a.717.717 0 0 0-.208-.51.675.675 0 0 0-.502-.217h-.036a.674.674 0 0 0-.501.217.71.71 0 0 0-.209.51h-.002v.009h.001c.066 2.113 1.378 3.675 3.662 3.675 2.054 0 3.684-1.313 3.684-3.26 0-1.462-.72-2.456-2.117-3.028Z"/><path fill="#A5C658" d="M4.242 8.485a4.243 4.243 0 1 0 0-8.485 4.243 4.243 0 0 0 0 8.485Z"/><path fill="#205629" d="M20 8.485A4.243 4.243 0 1 0 20 0a4.243 4.243 0 0 0 0 8.485Z"/><path fill="#C4E4B4" d="M35.758 8.485a4.243 4.243 0 1 0 0-8.485 4.243 4.243 0 0 0 0 8.485Z"/><path fill="#A1D489" d="M4.242 24.242a4.242 4.242 0 1 0 0-8.485 4.242 4.242 0 0 0 0 8.485Z"/><path fill="#78A669" d="M20 24.242a4.242 4.242 0 1 0 0-8.484 4.242 4.242 0 0 0 0 8.484Z"/><path fill="#A5C658" d="M35.758 24.242a4.242 4.242 0 1 0 0-8.484 4.242 4.242 0 0 0 0 8.484Z"/><path fill="#205629" d="M4.242 40a4.242 4.242 0 1 0 .001-8.485 4.242 4.242 0 0 0 0 8.485Z"/><path fill="#A1D489" d="M20 40a4.242 4.242 0 1 0 0-8.484A4.242 4.242 0 0 0 20 40Z"/><path fill="#205629" d="M35.758 40a4.242 4.242 0 1 0 0-8.484 4.242 4.242 0 0 0 0 8.484Z"/></svg>